<svg xmlns="http://www.w3.org/2000/svg" version="1.1" xmlns:xlink="http://www.w3.org/1999/xlink" xmlns:svgjs="http://svgjs.dev/svgjs" width="1000" height="295" viewBox="0 0 1000 295"><g transform="matrix(1,0,0,1,-0.6060606060606233,-0.401139560818649)"><svg viewBox="0 0 396 117" data-background-color="#ffffff" preserveAspectRatio="xMidYMid meet" height="295" width="1000" xmlns="http://www.w3.org/2000/svg" xmlns:xlink="http://www.w3.org/1999/xlink"><g id="tight-bounds" transform="matrix(1,0,0,1,0.2400000000000091,0.15909602920604016)"><svg viewBox="0 0 395.52 116.68180378657487" height="116.68180378657487" width="395.52"><g><svg viewBox="0 0 395.52 116.68180378657487" height="116.68180378657487" width="395.52"><g><svg viewBox="0 0 395.52 116.68180378657487" height="116.68180378657487" width="395.52"><g><svg viewBox="0 0 395.52 116.68180378657487" height="116.68180378657487" width="395.52"><g><svg viewBox="0 0 395.52 116.68180378657487" height="116.68180378657487" width="395.52"><g transform="matrix(1,0,0,1,0,0)"><svg width="395.52" viewBox="2 -35.25 145.24000549316406 42.849998474121094" height="116.68180378657487" data-palette-color="#000000"><path d="M29.05-34.55L31.25 0 25.2 0 24.6-14.6Q24.3-22.6 24.3-26L24.3-26 24.35-28.6 19.6-3.8 13.6-3.8 8.65-28.65Q8.7-27.15 8.7-24.05L8.7-24.05Q8.7-18.8 8.5-14.4L8.5-14.4 7.95 0 2 0 4.2-34.55 12.2-34.55 16.7-10.2 20.9-34.55 29.05-34.55ZM47.65-35.25Q53.75-35.25 57.05-30.8 60.35-26.35 60.35-17.3L60.35-17.3Q60.35-8.35 57.05-3.8 53.75 0.75 47.65 0.75L47.65 0.75Q41.6 0.75 38.27-3.75 34.95-8.25 34.95-17.25L34.95-17.25Q34.95-26.15 38.27-30.7 41.6-35.25 47.65-35.25L47.65-35.25ZM47.65-30.45Q44.6-30.45 43.12-27.4 41.65-24.35 41.65-17.25L41.65-17.25Q41.65-10.1 43.15-7.13 44.65-4.15 47.65-4.15L47.65-4.15Q50.75-4.15 52.22-7.1 53.7-10.05 53.7-17.3L53.7-17.3Q53.7-24.4 52.2-27.43 50.7-30.45 47.65-30.45L47.65-30.45ZM72.8-34.55Q77.15-34.55 80.32-33.23 83.5-31.9 85.47-28.13 87.45-24.35 87.45-17.45L87.45-17.45Q87.45-7.7 83.57-3.85 79.7 0 73.45 0L73.45 0 65.1 0 65.1-34.55 72.8-34.55ZM73.75-29.8L71.45-29.8 71.45-4.75 73.8-4.75Q76.05-4.75 77.57-5.8 79.1-6.85 79.97-9.65 80.85-12.45 80.85-17.45L80.85-17.45Q80.85-22.55 79.92-25.25 79-27.95 77.47-28.88 75.95-29.8 73.75-29.8L73.75-29.8ZM114.14 0L107.69 0 105.99-8.1 97.09-8.1 95.44 0 89.09 0 97.79-34.55 105.49-34.55 114.14 0ZM101.54-29.7L98.09-12.9 105.04-12.9 101.54-29.7ZM124.24-34.55L124.24-5Q124.24 0.4 121.89 3.18 119.54 5.95 115.29 7.6L115.29 7.6 113.59 3.1Q115.44 2.2 116.34 1.18 117.24 0.15 117.54-1.3 117.84-2.75 117.84-5.25L117.84-5.25 117.84-34.55 124.24-34.55ZM130.09-34.55L147.24-34.55 146.59-29.8 136.44-29.8 136.44-19.9 145.29-19.9 145.29-15.2 136.44-15.2 136.44-4.8 147.24-4.8 147.24 0 130.09 0 130.09-34.55Z" opacity="1" transform="matrix(1,0,0,1,0,0)" fill="#000000" class="undefined-text-0" data-fill-palette-color="primary" id="text-0"></path></svg></g></svg></g></svg></g></svg></g><g></g></svg></g><defs></defs></svg><rect width="395.52" height="116.68180378657487" fill="none" stroke="none" visibility="hidden"></rect></g></svg></g></svg>